<svg width="141" height="40" viewBox="0 0 141 40" fill="none" xmlns="http://www.w3.org/2000/svg">
<g clip-path="url(#clip0_4101_864)">
<path d="M38.2942 22.8224L37.4727 22.3481L39.674 21.7583L39.3102 20.4006L35.7512 21.3542L34.0725 20.385C34.0957 20.26 34.1084 20.1315 34.1084 20C34.1084 19.8684 34.0957 19.7398 34.0725 19.6149L35.7512 18.6457L39.3102 19.5994L39.674 18.2416L37.4727 17.6518L38.2942 17.1775L41.8194 16.9659L42.3385 14.0309L39.5373 13.013L37.5914 15.9602L36.7699 16.4345L37.3598 14.2332L36.002 13.8694L35.0484 17.4284L33.3687 18.3982C33.1741 18.2315 32.949 18.0997 32.7028 18.0124V16.0742L35.3082 13.4688L34.3143 12.4749L32.7028 14.0863V13.1377L34.2772 9.98876L32 8L29.7227 9.98886L31.2972 13.1378V14.0864L29.6857 12.475L28.6918 13.4689L31.2971 16.0743V18.0125C31.051 18.0998 30.8259 18.2316 30.6312 18.3983L28.9515 17.4285L27.9979 13.8695L26.6402 14.2333L27.23 16.4346L26.4085 15.9603L24.4627 13.0131L21.6615 14.031L22.1806 16.966L25.7058 17.1776L26.5273 17.6519L24.326 18.2417L24.6898 19.5994L28.2488 18.6458L29.9275 19.615C29.9043 19.74 29.8916 19.8685 29.8916 20C29.8916 20.1316 29.9043 20.2602 29.9275 20.3851L28.2488 21.3543L24.6898 20.4006L24.326 21.7584L26.5273 22.3482L25.7058 22.8225L22.1806 23.034L21.6615 25.969L24.4627 26.9869L26.4086 24.0397L27.2301 23.5654L26.6403 25.7667L27.998 26.1306L28.9516 22.5715L30.6313 21.6018C30.826 21.7684 31.0511 21.9003 31.2972 21.9875V23.9258L28.6919 26.5311L29.6858 27.525L31.2973 25.9135V26.8621L29.7228 30.0111L32.0001 32L34.2774 30.0111L32.7029 26.8621V25.9135L34.3144 27.525L35.3083 26.5311L32.7029 23.9258V21.9875C32.9491 21.9003 33.1742 21.7684 33.3689 21.6018L35.0485 22.5715L36.0022 26.1306L37.3599 25.7667L36.7701 23.5654L37.5916 24.0397L39.5374 26.9869L42.3387 25.969L41.8196 23.034L38.2942 22.8224Z" fill="#FF4646"/>
</g>
<path d="M54.832 24V16.92H52.048V15.6H59.176V16.92H56.392V24H54.832ZM66.8508 15.6H68.4108V24H66.8508V15.6ZM62.5067 24H60.9467V15.6H62.5067V24ZM66.9708 20.4H62.3748V19.068H66.9708V20.4ZM72.7016 19.092H76.8776V20.376H72.7016V19.092ZM72.8216 22.692H77.5616V24H71.2616V15.6H77.3936V16.908H72.8216V22.692ZM87.7411 24.12C87.0851 24.12 86.4811 24.016 85.9291 23.808C85.3851 23.592 84.9091 23.292 84.5011 22.908C84.0931 22.516 83.7771 22.056 83.5531 21.528C83.3291 21 83.2171 20.424 83.2171 19.8C83.2171 19.176 83.3291 18.6 83.5531 18.072C83.7771 17.544 84.0931 17.088 84.5011 16.704C84.9171 16.312 85.4011 16.012 85.9531 15.804C86.5051 15.588 87.1091 15.48 87.7651 15.48C88.4771 15.48 89.1171 15.596 89.6851 15.828C90.2611 16.06 90.7451 16.4 91.1371 16.848L90.1531 17.808C89.8251 17.48 89.4691 17.24 89.0851 17.088C88.7091 16.928 88.2931 16.848 87.8371 16.848C87.3971 16.848 86.9891 16.92 86.6131 17.064C86.2371 17.208 85.9131 17.412 85.6411 17.676C85.3691 17.94 85.1571 18.252 85.0051 18.612C84.8611 18.972 84.7891 19.368 84.7891 19.8C84.7891 20.224 84.8611 20.616 85.0051 20.976C85.1571 21.336 85.3691 21.652 85.6411 21.924C85.9131 22.188 86.2331 22.392 86.6011 22.536C86.9691 22.68 87.3771 22.752 87.8251 22.752C88.2411 22.752 88.6411 22.688 89.0251 22.56C89.4171 22.424 89.7891 22.2 90.1411 21.888L91.0291 23.052C90.5891 23.404 90.0771 23.672 89.4931 23.856C88.9171 24.032 88.3331 24.12 87.7411 24.12ZM89.5531 22.848V19.704H91.0291V23.052L89.5531 22.848ZM93.6866 24V15.6H95.2466V24H93.6866ZM99.5466 19.464H103.735V20.784H99.5466V19.464ZM99.6786 24H98.1186V15.6H104.251V16.908H99.6786V24ZM108.122 24V16.92H105.338V15.6H112.466V16.92H109.682V24H108.122ZM116.759 24.12C116.103 24.12 115.475 24.028 114.875 23.844C114.275 23.652 113.799 23.408 113.447 23.112L113.987 21.9C114.323 22.164 114.739 22.384 115.235 22.56C115.731 22.736 116.239 22.824 116.759 22.824C117.199 22.824 117.555 22.776 117.827 22.68C118.099 22.584 118.299 22.456 118.427 22.296C118.555 22.128 118.619 21.94 118.619 21.732C118.619 21.476 118.527 21.272 118.343 21.12C118.159 20.96 117.919 20.836 117.623 20.748C117.335 20.652 117.011 20.564 116.651 20.484C116.299 20.404 115.943 20.312 115.583 20.208C115.231 20.096 114.907 19.956 114.611 19.788C114.323 19.612 114.087 19.38 113.903 19.092C113.719 18.804 113.627 18.436 113.627 17.988C113.627 17.532 113.747 17.116 113.987 16.74C114.235 16.356 114.607 16.052 115.103 15.828C115.607 15.596 116.243 15.48 117.011 15.48C117.515 15.48 118.015 15.544 118.511 15.672C119.007 15.8 119.439 15.984 119.807 16.224L119.315 17.436C118.939 17.212 118.551 17.048 118.151 16.944C117.751 16.832 117.367 16.776 116.999 16.776C116.567 16.776 116.215 16.828 115.943 16.932C115.679 17.036 115.483 17.172 115.355 17.34C115.235 17.508 115.175 17.7 115.175 17.916C115.175 18.172 115.263 18.38 115.439 18.54C115.623 18.692 115.859 18.812 116.147 18.9C116.443 18.988 116.771 19.076 117.131 19.164C117.491 19.244 117.847 19.336 118.199 19.44C118.559 19.544 118.883 19.68 119.171 19.848C119.467 20.016 119.703 20.244 119.879 20.532C120.063 20.82 120.155 21.184 120.155 21.624C120.155 22.072 120.031 22.488 119.783 22.872C119.543 23.248 119.171 23.552 118.667 23.784C118.163 24.008 117.527 24.12 116.759 24.12Z" fill="#181C29"/>
<defs>
<clipPath id="clip0_4101_864">
<rect width="24" height="24" fill="white" transform="translate(20 8)"/>
</clipPath>
</defs>
</svg>
